<?xml version="1.0" encoding="UTF-8"?>
<!DOCTYPE svg PUBLIC "-//W3C//DTD SVG 1.0//EN" "http://www.w3.org/TR/2001/REC-SVG-20010904/DTD/svg10.dtd">
<!-- Creator: CorelDRAW -->
<svg xmlns="http://www.w3.org/2000/svg" xml:space="preserve" width="40.0738mm" height="40.0738mm" version="1.0" style="shape-rendering:geometricPrecision; text-rendering:geometricPrecision; image-rendering:optimizeQuality; fill-rule:evenodd; clip-rule:evenodd"
viewBox="0 0 1290.34 1290.34"
 xmlns:xlink="http://www.w3.org/1999/xlink"
 xmlns:xodm="http://www.corel.com/coreldraw/odm/2003">
 <defs>
  <style type="text/css">
   <![CDATA[
    .fil0 {fill:#F1C40E}
    .fil1 {fill:white;fill-rule:nonzero}
   ]]>
  </style>
 </defs>
 <g id="Layer_x0020_1">
  <metadata id="CorelCorpID_0Corel-Layer"/>
  <g id="_105553323752736">
   <rect class="fil0" x="-0" y="-0" width="1290.34" height="1290.34" rx="172.47" ry="172.47"/>
   <path class="fil1" d="M645.17 171.46c112.42,0 215.69,39.16 296.92,104.59l1.24 0 -0.49 0.61c13.02,10.53 25.47,21.72 37.29,33.55 85.73,85.72 138.75,204.15 138.75,334.96 0,130.81 -53.02,249.23 -138.75,334.96 -85.72,85.73 -204.15,138.75 -334.96,138.75 -130.81,0 -249.23,-53.02 -334.96,-138.75 -85.73,-85.73 -138.75,-204.15 -138.75,-334.96 0,-130.81 53.02,-249.23 138.75,-334.96 85.72,-85.73 204.15,-138.75 334.96,-138.75zm-43.66 519.47l-49.56 53.36 0 295.01c29.93,7.05 61.14,10.79 93.22,10.79 111.82,0 213.06,-45.32 286.33,-118.6 73.28,-73.28 118.6,-174.51 118.6,-286.33 0,-111.82 -45.32,-213.06 -118.6,-286.33 -10.14,-10.14 -20.82,-19.74 -31.99,-28.77l-234.77 289.4 168.98 257.04 -113.34 0 -118.87 -185.57zm-144.9 312.68l0 -658.67 95.33 89.67 0 188.98 41.87 -57.48 228.37 -285.18 0.04 -0.02c-53.49,-26.05 -113.56,-40.66 -177.06,-40.66 -111.82,0 -213.06,45.32 -286.33,118.6 -73.28,73.28 -118.6,174.51 -118.6,286.33 0,111.82 45.32,213.05 118.6,286.33 28.66,28.66 61.6,53.05 97.78,72.11z"/>
  </g>
 </g>
</svg>
